<?xml version="1.0" encoding="UTF-8" standalone="no"?>
<!-- Created with Inkscape (http://www.inkscape.org/) -->

<svg
   width="512"
   height="512"
   viewBox="0 0 512 512"
   version="1.1"
   id="svg1"
   inkscape:version="1.4.2 (ebf0e940d0, 2025-05-08)"
   sodipodi:docname="tareo.svg"
   inkscape:export-filename="../../tareo.png"
   inkscape:export-xdpi="192"
   inkscape:export-ydpi="192"
   xmlns:inkscape="http://www.inkscape.org/namespaces/inkscape"
   xmlns:sodipodi="http://sodipodi.sourceforge.net/DTD/sodipodi-0.dtd"
   xmlns="http://www.w3.org/2000/svg"
   xmlns:svg="http://www.w3.org/2000/svg">
  <sodipodi:namedview
     id="namedview1"
     pagecolor="#f51c1c"
     bordercolor="#000000"
     borderopacity="0.25"
     inkscape:showpageshadow="2"
     inkscape:pageopacity="0.0"
     inkscape:pagecheckerboard="0"
     inkscape:deskcolor="#d1d1d1"
     inkscape:document-units="px"
     inkscape:zoom="0.7734375"
     inkscape:cx="297.37374"
     inkscape:cy="246.94949"
     inkscape:window-width="1920"
     inkscape:window-height="1008"
     inkscape:window-x="0"
     inkscape:window-y="0"
     inkscape:window-maximized="1"
     inkscape:current-layer="layer1"
     inkscape:export-bgcolor="#f51c1cff" />
  <defs
     id="defs1" />
  <g
     inkscape:label="Layer 1"
     inkscape:groupmode="layer"
     id="layer1">
    <g
       id="g6"
       transform="matrix(0.84069389,0,0,0.84069389,36.348229,37.183591)">
      <path
         id="rect1"
         style="fill:#ffffff;stroke-width:0.317144"
         d="m 235.66342,95.995102 h 101.90104 c 1.40298,0 2.53246,1.12948 2.53246,2.532468 v 46.13246 c 0,1.40299 -1.12948,2.53247 -2.53246,2.53247 H 235.66342 c -1.40299,0 -2.53247,-1.12948 -2.53247,-2.53247 V 98.52757 c 0,-1.402988 1.12948,-2.532468 2.53247,-2.532468 z" />
      <path
         id="rect1-9"
         style="fill:#ffffff;stroke-width:0.317144"
         d="M 351.90136,96.001633 H 453.8024 c 1.40299,0 2.53247,1.12948 2.53247,2.532467 v 46.13246 c 0,1.40299 -1.12948,2.53247 -2.53247,2.53247 H 351.90136 c -1.40298,0 -2.53246,-1.12948 -2.53246,-2.53247 V 98.5341 c 0,-1.402987 1.12948,-2.532467 2.53246,-2.532467 z" />
      <path
         id="rect1-7"
         style="fill:#ffffff;stroke-width:0.317144"
         d="m 235.72496,161.62782 h 101.90103 c 1.40299,0 2.53247,1.12948 2.53247,2.53247 v 46.13246 c 0,1.40299 -1.12948,2.53247 -2.53247,2.53247 H 235.72496 c -1.40299,0 -2.53247,-1.12948 -2.53247,-2.53247 v -46.13246 c 0,-1.40299 1.12948,-2.53247 2.53247,-2.53247 z" />
      <path
         id="rect1-9-3"
         style="fill:#ffffff;stroke-width:0.317144"
         d="m 351.96289,161.63435 h 101.90104 c 1.40298,0 2.53246,1.12948 2.53246,2.53247 v 46.13247 c 0,1.40298 -1.12948,2.53246 -2.53246,2.53246 H 351.96289 c -1.40299,0 -2.53247,-1.12948 -2.53247,-2.53246 v -46.13247 c 0,-1.40299 1.12948,-2.53247 2.53247,-2.53247 z" />
      <path
         id="rect1-3"
         style="fill:#ffffff;stroke-width:0.317144"
         d="m 235.65388,224.28314 h 101.90104 c 1.40299,0 2.53247,1.12948 2.53247,2.53247 v 46.13246 c 0,1.40299 -1.12948,2.53247 -2.53247,2.53247 H 235.65388 c -1.40299,0 -2.53247,-1.12948 -2.53247,-2.53247 v -46.13246 c 0,-1.40299 1.12948,-2.53247 2.53247,-2.53247 z" />
      <path
         id="rect1-9-1"
         style="fill:#ffffff;stroke-width:0.317144"
         d="m 351.89181,224.28967 h 101.90104 c 1.40299,0 2.53247,1.12948 2.53247,2.53247 v 46.13246 c 0,1.40299 -1.12948,2.53247 -2.53247,2.53247 H 351.89181 c -1.40298,0 -2.53247,-1.12948 -2.53247,-2.53247 v -46.13246 c 0,-1.40299 1.12949,-2.53247 2.53247,-2.53247 z" />
      <path
         id="rect1-7-9"
         style="fill:#ffffff;stroke-width:0.317144"
         d="m 235.71541,289.91586 h 101.90103 c 1.40299,0 2.53247,1.12948 2.53247,2.53247 v 46.13246 c 0,1.40299 -1.12948,2.53247 -2.53247,2.53247 H 235.71541 c -1.40299,0 -2.53247,-1.12948 -2.53247,-2.53247 v -46.13246 c 0,-1.40299 1.12948,-2.53247 2.53247,-2.53247 z" />
      <path
         id="rect1-9-3-4"
         style="fill:#ffffff;stroke-width:0.317144"
         d="m 351.95334,289.92239 h 101.90103 c 1.40299,0 2.53247,1.12948 2.53247,2.53247 v 46.13247 c 0,1.40298 -1.12948,2.53246 -2.53247,2.53246 H 351.95334 c -1.40299,0 -2.53247,-1.12948 -2.53247,-2.53246 v -46.13247 c 0,-1.40299 1.12948,-2.53247 2.53247,-2.53247 z" />
      <path
         id="path1"
         style="fill:#ffffff;stroke-width:1.35153"
         d="m 204.09932,283.56967 a 56.83839,56.83839 0 0 1 -56.83839,56.83839 56.83839,56.83839 0 0 1 -56.838395,-56.83839 56.83839,56.83839 0 0 1 56.838395,-56.83839 56.83839,56.83839 0 0 1 56.83839,56.83839 z" />
      <path
         id="path1-0"
         style="fill:#ffffff;stroke-width:1.35153"
         d="M 205.04974,136.25252 A 56.83839,56.83839 0 0 1 148.21135,193.09091 56.83839,56.83839 0 0 1 91.372959,136.25252 56.83839,56.83839 0 0 1 148.21135,79.414127 56.83839,56.83839 0 0 1 205.04974,136.25252 Z" />
      <path
         id="path2"
         style="fill:#ffffff;stroke-width:1.36672"
         transform="scale(1,-1)"
         d="m 229.24324,-441.14731 a 81.545441,107.40769 0 0 1 -40.77272,93.01779 81.545441,107.40769 0 0 1 -81.54544,0 81.545441,107.40769 0 0 1 -40.772721,-93.01779" />
      <path
         style="fill:#ffffff;fill-opacity:1;fill-rule:evenodd;stroke:#000000;stroke-width:4.77466px;stroke-linecap:butt;stroke-linejoin:miter;stroke-opacity:1"
         d="m 148.17953,92.364887 2.38665,47.315053"
         id="path5" />
      <path
         style="fill:none;fill-rule:evenodd;stroke:#000000;stroke-width:6.64241px;stroke-linecap:butt;stroke-linejoin:miter;stroke-opacity:1"
         d="m 197.07534,122.28398 -47.56987,20.53878"
         id="path6" />
    </g>
  </g>
</svg>
